<svg id="my-svg" width="100%" xmlns="http://www.w3.org/2000/svg" xmlns:xlink="http://www.w3.org/1999/xlink" class="classDiagram" style="max-width: 818.637px; background-color: white;" viewBox="0 0 818.63671875 886" role="graphics-document document" aria-roledescription="class"><style>#my-svg{font-family:"trebuchet ms",verdana,arial,sans-serif;font-size:16px;fill:#333;}@keyframes edge-animation-frame{from{stroke-dashoffset:0;}}@keyframes dash{to{stroke-dashoffset:0;}}#my-svg .edge-animation-slow{stroke-dasharray:9,5!important;stroke-dashoffset:900;animation:dash 50s linear infinite;stroke-linecap:round;}#my-svg .edge-animation-fast{stroke-dasharray:9,5!important;stroke-dashoffset:900;animation:dash 20s linear infinite;stroke-linecap:round;}#my-svg .error-icon{fill:#552222;}#my-svg .error-text{fill:#552222;stroke:#552222;}#my-svg .edge-thickness-normal{stroke-width:1px;}#my-svg .edge-thickness-thick{stroke-width:3.5px;}#my-svg .edge-pattern-solid{stroke-dasharray:0;}#my-svg .edge-thickness-invisible{stroke-width:0;fill:none;}#my-svg .edge-pattern-dashed{stroke-dasharray:3;}#my-svg .edge-pattern-dotted{stroke-dasharray:2;}#my-svg .marker{fill:#333333;stroke:#333333;}#my-svg .marker.cross{stroke:#333333;}#my-svg svg{font-family:"trebuchet ms",verdana,arial,sans-serif;font-size:16px;}#my-svg p{margin:0;}#my-svg g.classGroup text{fill:#9370DB;stroke:none;font-family:"trebuchet ms",verdana,arial,sans-serif;font-size:10px;}#my-svg g.classGroup text .title{font-weight:bolder;}#my-svg .cluster-label text{fill:#333;}#my-svg .cluster-label span{color:#333;}#my-svg .cluster-label span p{background-color:transparent;}#my-svg .cluster rect{fill:#ffffde;stroke:#aaaa33;stroke-width:1px;}#my-svg .cluster text{fill:#333;}#my-svg .cluster span{color:#333;}#my-svg .nodeLabel,#my-svg .edgeLabel{color:#131300;}#my-svg .edgeLabel .label rect{fill:#ECECFF;}#my-svg .label text{fill:#131300;}#my-svg .labelBkg{background:#ECECFF;}#my-svg .edgeLabel .label span{background:#ECECFF;}#my-svg .classTitle{font-weight:bolder;}#my-svg .node rect,#my-svg .node circle,#my-svg .node ellipse,#my-svg .node polygon,#my-svg .node path{fill:#ECECFF;stroke:#9370DB;stroke-width:1px;}#my-svg .divider{stroke:#9370DB;stroke-width:1;}#my-svg g.clickable{cursor:pointer;}#my-svg g.classGroup rect{fill:#ECECFF;stroke:#9370DB;}#my-svg g.classGroup line{stroke:#9370DB;stroke-width:1;}#my-svg .classLabel .box{stroke:none;stroke-width:0;fill:#ECECFF;opacity:0.5;}#my-svg .classLabel .label{fill:#9370DB;font-size:10px;}#my-svg .relation{stroke:#333333;stroke-width:1;fill:none;}#my-svg .dashed-line{stroke-dasharray:3;}#my-svg .dotted-line{stroke-dasharray:1 2;}#my-svg #compositionStart,#my-svg .composition{fill:#333333!important;stroke:#333333!important;stroke-width:1;}#my-svg #compositionEnd,#my-svg .composition{fill:#333333!important;stroke:#333333!important;stroke-width:1;}#my-svg #dependencyStart,#my-svg .dependency{fill:#333333!important;stroke:#333333!important;stroke-width:1;}#my-svg #dependencyStart,#my-svg .dependency{fill:#333333!important;stroke:#333333!important;stroke-width:1;}#my-svg #extensionStart,#my-svg .extension{fill:transparent!important;stroke:#333333!important;stroke-width:1;}#my-svg #extensionEnd,#my-svg .extension{fill:transparent!important;stroke:#333333!important;stroke-width:1;}#my-svg #aggregationStart,#my-svg .aggregation{fill:transparent!important;stroke:#333333!important;stroke-width:1;}#my-svg #aggregationEnd,#my-svg .aggregation{fill:transparent!important;stroke:#333333!important;stroke-width:1;}#my-svg #lollipopStart,#my-svg .lollipop{fill:#ECECFF!important;stroke:#333333!important;stroke-width:1;}#my-svg #lollipopEnd,#my-svg .lollipop{fill:#ECECFF!important;stroke:#333333!important;stroke-width:1;}#my-svg .edgeTerminals{font-size:11px;line-height:initial;}#my-svg .classTitleText{text-anchor:middle;font-size:18px;fill:#333;}#my-svg .label-icon{display:inline-block;height:1em;overflow:visible;vertical-align:-0.125em;}#my-svg .node .label-icon path{fill:currentColor;stroke:revert;stroke-width:revert;}#my-svg :root{--mermaid-font-family:"trebuchet ms",verdana,arial,sans-serif;}</style><g><defs><marker id="my-svg_class-aggregationStart" class="marker aggregation class" refX="18" refY="7" markerWidth="190" markerHeight="240" orient="auto"><path d="M 18,7 L9,13 L1,7 L9,1 Z"/></marker></defs><defs><marker id="my-svg_class-aggregationEnd" class="marker aggregation class" refX="1" refY="7" markerWidth="20" markerHeight="28" orient="auto"><path d="M 18,7 L9,13 L1,7 L9,1 Z"/></marker></defs><defs><marker id="my-svg_class-extensionStart" class="marker extension class" refX="18" refY="7" markerWidth="190" markerHeight="240" orient="auto"><path d="M 1,7 L18,13 V 1 Z"/></marker></defs><defs><marker id="my-svg_class-extensionEnd" class="marker extension class" refX="1" refY="7" markerWidth="20" markerHeight="28" orient="auto"><path d="M 1,1 V 13 L18,7 Z"/></marker></defs><defs><marker id="my-svg_class-compositionStart" class="marker composition class" refX="18" refY="7" markerWidth="190" markerHeight="240" orient="auto"><path d="M 18,7 L9,13 L1,7 L9,1 Z"/></marker></defs><defs><marker id="my-svg_class-compositionEnd" class="marker composition class" refX="1" refY="7" markerWidth="20" markerHeight="28" orient="auto"><path d="M 18,7 L9,13 L1,7 L9,1 Z"/></marker></defs><defs><marker id="my-svg_class-dependencyStart" class="marker dependency class" refX="6" refY="7" markerWidth="190" markerHeight="240" orient="auto"><path d="M 5,7 L9,13 L1,7 L9,1 Z"/></marker></defs><defs><marker id="my-svg_class-dependencyEnd" class="marker dependency class" refX="13" refY="7" markerWidth="20" markerHeight="28" orient="auto"><path d="M 18,7 L9,13 L14,7 L9,1 Z"/></marker></defs><defs><marker id="my-svg_class-lollipopStart" class="marker lollipop class" refX="13" refY="7" markerWidth="190" markerHeight="240" orient="auto"><circle fill="transparent" cx="7" cy="7" r="6"/></marker></defs><defs><marker id="my-svg_class-lollipopEnd" class="marker lollipop class" refX="1" refY="7" markerWidth="190" markerHeight="240" orient="auto"><circle fill="transparent" cx="7" cy="7" r="6"/></marker></defs><g class="root"><g class="clusters"/><g class="edgePaths"><path d="M358.566,182L358.566,188.167C358.566,194.333,358.566,206.667,358.566,218C358.566,229.333,358.566,239.667,358.566,244.833L358.566,250" id="id_Engine_GatewayImpl_1" class="edge-thickness-normal edge-pattern-solid relation" style=";;;" data-edge="true" data-et="edge" data-id="id_Engine_GatewayImpl_1" data-points="W3sieCI6MzU4LjU2NjQwNjI1LCJ5IjoxODJ9LHsieCI6MzU4LjU2NjQwNjI1LCJ5IjoyMTl9LHsieCI6MzU4LjU2NjQwNjI1LCJ5IjoyNTZ9XQ==" marker-end="url(#my-svg_class-dependencyEnd)"/><path d="M266.746,139.655L239.554,152.879C212.362,166.103,157.978,192.552,130.786,212.942C103.594,233.333,103.594,247.667,103.594,254.833L103.594,262" id="id_Engine_ClientImpl_2" class="edge-thickness-normal edge-pattern-solid relation" style=";;;" data-edge="true" data-et="edge" data-id="id_Engine_ClientImpl_2" data-points="W3sieCI6MjY2Ljc0NjA5Mzc1LCJ5IjoxMzkuNjU0NjY1Nzg4MzA0NX0seyJ4IjoxMDMuNTkzNzUsInkiOjIxOX0seyJ4IjoxMDMuNTkzNzUsInkiOjI2OH1d" marker-end="url(#my-svg_class-dependencyEnd)"/><path d="M450.387,140.895L476.43,153.912C502.474,166.93,554.561,192.965,580.605,211.149C606.648,229.333,606.648,239.667,606.648,244.833L606.648,250" id="id_Engine_SchedulerImpl_3" class="edge-thickness-normal edge-pattern-solid relation" style=";;;" data-edge="true" data-et="edge" data-id="id_Engine_SchedulerImpl_3" data-points="W3sieCI6NDUwLjM4NjcxODc1LCJ5IjoxNDAuODk0OTc1NTE1MjgxM30seyJ4Ijo2MDYuNjQ4NDM3NSwieSI6MjE5fSx7IngiOjYwNi42NDg0Mzc1LCJ5IjoyNTZ9XQ==" marker-end="url(#my-svg_class-dependencyEnd)"/><path d="M430.391,406L436.296,412.167C442.202,418.333,454.013,430.667,459.919,442C465.824,453.333,465.824,463.667,465.824,468.833L465.824,474" id="id_GatewayImpl_QueueImpl_4" class="edge-thickness-normal edge-pattern-solid relation" style=";;;" data-edge="true" data-et="edge" data-id="id_GatewayImpl_QueueImpl_4" data-points="W3sieCI6NDMwLjM5MDgzNDI2MzM5MjksInkiOjQwNn0seyJ4Ijo0NjUuODI0MjE4NzUsInkiOjQ0M30seyJ4Ijo0NjUuODI0MjE4NzUsInkiOjQ4MH1d" marker-end="url(#my-svg_class-dependencyEnd)"/><path d="M286.742,406L280.836,412.167C274.931,418.333,263.12,430.667,257.214,446C251.309,461.333,251.309,479.667,251.309,488.833L251.309,498" id="id_GatewayImpl_ServerImpl_5" class="edge-thickness-normal edge-pattern-solid relation" style=";;;" data-edge="true" data-et="edge" data-id="id_GatewayImpl_ServerImpl_5" data-points="W3sieCI6Mjg2Ljc0MTk3ODIzNjYwNzEsInkiOjQwNn0seyJ4IjoyNTEuMzA4NTkzNzUsInkiOjQ0M30seyJ4IjoyNTEuMzA4NTkzNzUsInkiOjUwNH1d" marker-end="url(#my-svg_class-dependencyEnd)"/><path d="M251.309,630L251.309,640.167C251.309,650.333,251.309,670.667,271.395,690.54C291.481,710.414,331.652,729.829,351.738,739.536L371.824,749.243" id="id_ServerImpl_MessageImpl_6" class="edge-thickness-normal edge-pattern-solid relation" style=";;;" data-edge="true" data-et="edge" data-id="id_ServerImpl_MessageImpl_6" data-points="W3sieCI6MjUxLjMwODU5Mzc1LCJ5Ijo2MzB9LHsieCI6MjUxLjMwODU5Mzc1LCJ5Ijo2OTF9LHsieCI6Mzc3LjIyNjU2MjUsInkiOjc1MS44NTM1NTk4NzA1NTAyfV0=" marker-end="url(#my-svg_class-dependencyEnd)"/><path d="M714.809,642L714.809,650.167C714.809,658.333,714.809,674.667,694.723,692.54C674.637,710.414,634.465,729.829,614.379,739.536L594.293,749.243" id="id_EventImpl_MessageImpl_7" class="edge-thickness-normal edge-pattern-solid relation" style=";;;" data-edge="true" data-et="edge" data-id="id_EventImpl_MessageImpl_7" data-points="W3sieCI6NzE0LjgwODU5Mzc1LCJ5Ijo2NDJ9LHsieCI6NzE0LjgwODU5Mzc1LCJ5Ijo2OTF9LHsieCI6NTg4Ljg5MDYyNSwieSI6NzUxLjg1MzU1OTg3MDU1MDJ9XQ==" marker-end="url(#my-svg_class-dependencyEnd)"/></g><g class="edgeLabels"><g class="edgeLabel" transform="translate(358.56640625, 219)"><g class="label" data-id="id_Engine_GatewayImpl_1" transform="translate(-16.8984375, -12)"><foreignObject width="33.796875" height="24"><div xmlns="http://www.w3.org/1999/xhtml" class="labelBkg" style="display: table-cell; white-space: nowrap; line-height: 1.5; max-width: 200px; text-align: center;"><span class="edgeLabel"><p>uses</p></span></div></foreignObject></g></g><g class="edgeLabel" transform="translate(103.59375, 219)"><g class="label" data-id="id_Engine_ClientImpl_2" transform="translate(-26.234375, -12)"><foreignObject width="52.46875" height="24"><div xmlns="http://www.w3.org/1999/xhtml" class="labelBkg" style="display: table-cell; white-space: nowrap; line-height: 1.5; max-width: 200px; text-align: center;"><span class="edgeLabel"><p>creates</p></span></div></foreignObject></g></g><g class="edgeLabel" transform="translate(606.6484375, 219)"><g class="label" data-id="id_Engine_SchedulerImpl_3" transform="translate(-32.9140625, -12)"><foreignObject width="65.828125" height="24"><div xmlns="http://www.w3.org/1999/xhtml" class="labelBkg" style="display: table-cell; white-space: nowrap; line-height: 1.5; max-width: 200px; text-align: center;"><span class="edgeLabel"><p>manages</p></span></div></foreignObject></g></g><g class="edgeLabel" transform="translate(465.82421875, 443)"><g class="label" data-id="id_GatewayImpl_QueueImpl_4" transform="translate(-32.9140625, -12)"><foreignObject width="65.828125" height="24"><div xmlns="http://www.w3.org/1999/xhtml" class="labelBkg" style="display: table-cell; white-space: nowrap; line-height: 1.5; max-width: 200px; text-align: center;"><span class="edgeLabel"><p>manages</p></span></div></foreignObject></g></g><g class="edgeLabel" transform="translate(251.30859375, 443)"><g class="label" data-id="id_GatewayImpl_ServerImpl_5" transform="translate(-47.140625, -12)"><foreignObject width="94.28125" height="24"><div xmlns="http://www.w3.org/1999/xhtml" class="labelBkg" style="display: table-cell; white-space: nowrap; line-height: 1.5; max-width: 200px; text-align: center;"><span class="edgeLabel"><p>dispatches to</p></span></div></foreignObject></g></g><g class="edgeLabel" transform="translate(251.30859375, 691)"><g class="label" data-id="id_ServerImpl_MessageImpl_6" transform="translate(-36.4609375, -12)"><foreignObject width="72.921875" height="24"><div xmlns="http://www.w3.org/1999/xhtml" class="labelBkg" style="display: table-cell; white-space: nowrap; line-height: 1.5; max-width: 200px; text-align: center;"><span class="edgeLabel"><p>processes</p></span></div></foreignObject></g></g><g class="edgeLabel" transform="translate(714.80859375, 691)"><g class="label" data-id="id_EventImpl_MessageImpl_7" transform="translate(-29.796875, -12)"><foreignObject width="59.59375" height="24"><div xmlns="http://www.w3.org/1999/xhtml" class="labelBkg" style="display: table-cell; white-space: nowrap; line-height: 1.5; max-width: 200px; text-align: center;"><span class="edgeLabel"><p>contains</p></span></div></foreignObject></g></g></g><g class="nodes"><g class="node default" id="classId-Engine-0" transform="translate(358.56640625, 95)"><g class="basic label-container"><path d="M-91.8203125 -87 L91.8203125 -87 L91.8203125 87 L-91.8203125 87" stroke="none" stroke-width="0" fill="#ECECFF" style=""/><path d="M-91.8203125 -87 C-26.48511376819485 -87, 38.8500849636103 -87, 91.8203125 -87 M-91.8203125 -87 C-42.73567872190732 -87, 6.3489550561853605 -87, 91.8203125 -87 M91.8203125 -87 C91.8203125 -26.66582560501343, 91.8203125 33.66834878997314, 91.8203125 87 M91.8203125 -87 C91.8203125 -48.0645048510837, 91.8203125 -9.129009702167394, 91.8203125 87 M91.8203125 87 C35.2490812087339 87, -21.322150082532204 87, -91.8203125 87 M91.8203125 87 C31.146936461715924 87, -29.52643957656815 87, -91.8203125 87 M-91.8203125 87 C-91.8203125 31.961295671742754, -91.8203125 -23.077408656514493, -91.8203125 -87 M-91.8203125 87 C-91.8203125 50.859783911034086, -91.8203125 14.719567822068171, -91.8203125 -87" stroke="#9370DB" stroke-width="1.3" fill="none" stroke-dasharray="0 0" style=""/></g><g class="annotation-group text" transform="translate(0, -63)"/><g class="label-group text" transform="translate(-26.671875, -63)"><g class="label" style="font-weight: bolder" transform="translate(0,-12)"><foreignObject width="53.34375" height="24"><div xmlns="http://www.w3.org/1999/xhtml" style="display: table-cell; white-space: nowrap; line-height: 1.5; max-width: 95px; text-align: center;"><span class="nodeLabel markdown-node-label" style=""><p>Engine</p></span></div></foreignObject></g></g><g class="members-group text" transform="translate(-79.8203125, -15)"/><g class="methods-group text" transform="translate(-79.8203125, 15)"><g class="label" style="" transform="translate(0,-12)"><foreignObject width="132.96875" height="24"><div xmlns="http://www.w3.org/1999/xhtml" style="display: table-cell; white-space: nowrap; line-height: 1.5; max-width: 174px; text-align: center;"><span class="nodeLabel markdown-node-label" style=""><p>+create_gateway()</p></span></div></foreignObject></g><g class="label" style="" transform="translate(0,12)"><foreignObject width="118.71875" height="24"><div xmlns="http://www.w3.org/1999/xhtml" style="display: table-cell; white-space: nowrap; line-height: 1.5; max-width: 162px; text-align: center;"><span class="nodeLabel markdown-node-label" style=""><p>+create_clients()</p></span></div></foreignObject></g><g class="label" style="" transform="translate(0,36)"><foreignObject width="43.125" height="24"><div xmlns="http://www.w3.org/1999/xhtml" style="display: table-cell; white-space: nowrap; line-height: 1.5; max-width: 95px; text-align: center;"><span class="nodeLabel markdown-node-label" style=""><p>+run()</p></span></div></foreignObject></g></g><g class="divider" style=""><path d="M-91.8203125 -39 C-29.821687477490208 -39, 32.176937545019584 -39, 91.8203125 -39 M-91.8203125 -39 C-52.31885571157126 -39, -12.81739892314252 -39, 91.8203125 -39" stroke="#9370DB" stroke-width="1.3" fill="none" stroke-dasharray="0 0" style=""/></g><g class="divider" style=""><path d="M-91.8203125 -15 C-19.284468665436492 -15, 53.251375169127016 -15, 91.8203125 -15 M-91.8203125 -15 C-54.979277993316984 -15, -18.138243486633968 -15, 91.8203125 -15" stroke="#9370DB" stroke-width="1.3" fill="none" stroke-dasharray="0 0" style=""/></g></g><g class="node default" id="classId-ClientImpl-1" transform="translate(103.59375, 331)"><g class="basic label-container"><path d="M-95.59375 -63 L95.59375 -63 L95.59375 63 L-95.59375 63" stroke="none" stroke-width="0" fill="#ECECFF" style=""/><path d="M-95.59375 -63 C-55.48469598742894 -63, -15.375641974857885 -63, 95.59375 -63 M-95.59375 -63 C-56.73806487667039 -63, -17.882379753340786 -63, 95.59375 -63 M95.59375 -63 C95.59375 -32.38310485389319, 95.59375 -1.7662097077863805, 95.59375 63 M95.59375 -63 C95.59375 -26.310567598977222, 95.59375 10.378864802045555, 95.59375 63 M95.59375 63 C21.20922068477384 63, -53.17530863045232 63, -95.59375 63 M95.59375 63 C45.28014434042458 63, -5.033461319150845 63, -95.59375 63 M-95.59375 63 C-95.59375 18.173306923493662, -95.59375 -26.653386153012676, -95.59375 -63 M-95.59375 63 C-95.59375 22.93132882020243, -95.59375 -17.137342359595138, -95.59375 -63" stroke="#9370DB" stroke-width="1.3" fill="none" stroke-dasharray="0 0" style=""/></g><g class="annotation-group text" transform="translate(0, -39)"/><g class="label-group text" transform="translate(-38.671875, -39)"><g class="label" style="font-weight: bolder" transform="translate(0,-12)"><foreignObject width="77.34375" height="24"><div xmlns="http://www.w3.org/1999/xhtml" style="display: table-cell; white-space: nowrap; line-height: 1.5; max-width: 120px; text-align: center;"><span class="nodeLabel markdown-node-label" style=""><p>ClientImpl</p></span></div></foreignObject></g></g><g class="members-group text" transform="translate(-83.59375, 9)"/><g class="methods-group text" transform="translate(-83.59375, 39)"><g class="label" style="" transform="translate(0,-12)"><foreignObject width="128.515625" height="24"><div xmlns="http://www.w3.org/1999/xhtml" style="display: table-cell; white-space: nowrap; line-height: 1.5; max-width: 166px; text-align: center;"><span class="nodeLabel markdown-node-label" style=""><p>+send_message()</p></span></div></foreignObject></g></g><g class="divider" style=""><path d="M-95.59375 -15 C-29.04995253971461 -15, 37.49384492057078 -15, 95.59375 -15 M-95.59375 -15 C-49.74671821321128 -15, -3.899686426422562 -15, 95.59375 -15" stroke="#9370DB" stroke-width="1.3" fill="none" stroke-dasharray="0 0" style=""/></g><g class="divider" style=""><path d="M-95.59375 9 C-48.5869657958602 9, -1.5801815917204038 9, 95.59375 9 M-95.59375 9 C-55.58167368603346 9, -15.569597372066923 9, 95.59375 9" stroke="#9370DB" stroke-width="1.3" fill="none" stroke-dasharray="0 0" style=""/></g></g><g class="node default" id="classId-EventImpl-2" transform="translate(714.80859375, 567)"><g class="basic label-container"><path d="M-95.828125 -75 L95.828125 -75 L95.828125 75 L-95.828125 75" stroke="none" stroke-width="0" fill="#ECECFF" style=""/><path d="M-95.828125 -75 C-54.144768935489985 -75, -12.46141287097997 -75, 95.828125 -75 M-95.828125 -75 C-43.165370667429535 -75, 9.49738366514093 -75, 95.828125 -75 M95.828125 -75 C95.828125 -37.08425253039456, 95.828125 0.8314949392108844, 95.828125 75 M95.828125 -75 C95.828125 -33.68649954622861, 95.828125 7.627000907542779, 95.828125 75 M95.828125 75 C23.5665968576086 75, -48.6949312847828 75, -95.828125 75 M95.828125 75 C33.132151728640196 75, -29.56382154271961 75, -95.828125 75 M-95.828125 75 C-95.828125 27.802272762748856, -95.828125 -19.395454474502287, -95.828125 -75 M-95.828125 75 C-95.828125 23.4778650327126, -95.828125 -28.0442699345748, -95.828125 -75" stroke="#9370DB" stroke-width="1.3" fill="none" stroke-dasharray="0 0" style=""/></g><g class="annotation-group text" transform="translate(0, -51)"/><g class="label-group text" transform="translate(-38.234375, -51)"><g class="label" style="font-weight: bolder" transform="translate(0,-12)"><foreignObject width="76.46875" height="24"><div xmlns="http://www.w3.org/1999/xhtml" style="display: table-cell; white-space: nowrap; line-height: 1.5; max-width: 118px; text-align: center;"><span class="nodeLabel markdown-node-label" style=""><p>EventImpl</p></span></div></foreignObject></g></g><g class="members-group text" transform="translate(-83.828125, -3)"/><g class="methods-group text" transform="translate(-83.828125, 27)"><g class="label" style="" transform="translate(0,-12)"><foreignObject width="129.421875" height="24"><div xmlns="http://www.w3.org/1999/xhtml" style="display: table-cell; white-space: nowrap; line-height: 1.5; max-width: 172px; text-align: center;"><span class="nodeLabel markdown-node-label" style=""><p>+get_event_type()</p></span></div></foreignObject></g><g class="label" style="" transform="translate(0,12)"><foreignObject width="116.0625" height="24"><div xmlns="http://www.w3.org/1999/xhtml" style="display: table-cell; white-space: nowrap; line-height: 1.5; max-width: 156px; text-align: center;"><span class="nodeLabel markdown-node-label" style=""><p>+get_message()</p></span></div></foreignObject></g></g><g class="divider" style=""><path d="M-95.828125 -27 C-34.84499882599447 -27, 26.138127348011054 -27, 95.828125 -27 M-95.828125 -27 C-33.68756193605108 -27, 28.453001127897835 -27, 95.828125 -27" stroke="#9370DB" stroke-width="1.3" fill="none" stroke-dasharray="0 0" style=""/></g><g class="divider" style=""><path d="M-95.828125 -3 C-53.259151388175674 -3, -10.690177776351348 -3, 95.828125 -3 M-95.828125 -3 C-39.86379805956422 -3, 16.100528880871565 -3, 95.828125 -3" stroke="#9370DB" stroke-width="1.3" fill="none" stroke-dasharray="0 0" style=""/></g></g><g class="node default" id="classId-GatewayImpl-3" transform="translate(358.56640625, 331)"><g class="basic label-container"><path d="M-109.37890625 -75 L109.37890625 -75 L109.37890625 75 L-109.37890625 75" stroke="none" stroke-width="0" fill="#ECECFF" style=""/><path d="M-109.37890625 -75 C-53.59089536832912 -75, 2.197115513341757 -75, 109.37890625 -75 M-109.37890625 -75 C-32.11787012177298 -75, 45.14316600645404 -75, 109.37890625 -75 M109.37890625 -75 C109.37890625 -16.20780632305165, 109.37890625 42.5843873538967, 109.37890625 75 M109.37890625 -75 C109.37890625 -32.103946763884906, 109.37890625 10.792106472230188, 109.37890625 75 M109.37890625 75 C22.146125313627905 75, -65.08665562274419 75, -109.37890625 75 M109.37890625 75 C51.09237941566556 75, -7.1941474186688765 75, -109.37890625 75 M-109.37890625 75 C-109.37890625 15.419870197482943, -109.37890625 -44.16025960503411, -109.37890625 -75 M-109.37890625 75 C-109.37890625 22.511071048457538, -109.37890625 -29.977857903084924, -109.37890625 -75" stroke="#9370DB" stroke-width="1.3" fill="none" stroke-dasharray="0 0" style=""/></g><g class="annotation-group text" transform="translate(0, -51)"/><g class="label-group text" transform="translate(-49.3515625, -51)"><g class="label" style="font-weight: bolder" transform="translate(0,-12)"><foreignObject width="98.703125" height="24"><div xmlns="http://www.w3.org/1999/xhtml" style="display: table-cell; white-space: nowrap; line-height: 1.5; max-width: 138px; text-align: center;"><span class="nodeLabel markdown-node-label" style=""><p>GatewayImpl</p></span></div></foreignObject></g></g><g class="members-group text" transform="translate(-97.37890625, -3)"/><g class="methods-group text" transform="translate(-97.37890625, 27)"><g class="label" style="" transform="translate(0,-12)"><foreignObject width="145.40625" height="24"><div xmlns="http://www.w3.org/1999/xhtml" style="display: table-cell; white-space: nowrap; line-height: 1.5; max-width: 183px; text-align: center;"><span class="nodeLabel markdown-node-label" style=""><p>+receive_message()</p></span></div></foreignObject></g><g class="label" style="" transform="translate(0,12)"><foreignObject width="79.59375" height="24"><div xmlns="http://www.w3.org/1999/xhtml" style="display: table-cell; white-space: nowrap; line-height: 1.5; max-width: 127px; text-align: center;"><span class="nodeLabel markdown-node-label" style=""><p>+dispatch()</p></span></div></foreignObject></g></g><g class="divider" style=""><path d="M-109.37890625 -27 C-51.989031162351466 -27, 5.4008439252970675 -27, 109.37890625 -27 M-109.37890625 -27 C-40.271007560463545 -27, 28.83689112907291 -27, 109.37890625 -27" stroke="#9370DB" stroke-width="1.3" fill="none" stroke-dasharray="0 0" style=""/></g><g class="divider" style=""><path d="M-109.37890625 -3 C-65.19834465771387 -3, -21.017783065427736 -3, 109.37890625 -3 M-109.37890625 -3 C-62.963725518292584 -3, -16.54854478658517 -3, 109.37890625 -3" stroke="#9370DB" stroke-width="1.3" fill="none" stroke-dasharray="0 0" style=""/></g></g><g class="node default" id="classId-MessageImpl-4" transform="translate(483.05859375, 803)"><g class="basic label-container"><path d="M-105.83203125 -75 L105.83203125 -75 L105.83203125 75 L-105.83203125 75" stroke="none" stroke-width="0" fill="#ECECFF" style=""/><path d="M-105.83203125 -75 C-60.35866538543575 -75, -14.885299520871499 -75, 105.83203125 -75 M-105.83203125 -75 C-32.6065365560447 -75, 40.618958137910596 -75, 105.83203125 -75 M105.83203125 -75 C105.83203125 -21.925783152753382, 105.83203125 31.148433694493235, 105.83203125 75 M105.83203125 -75 C105.83203125 -29.18981590784476, 105.83203125 16.62036818431048, 105.83203125 75 M105.83203125 75 C59.71678222601144 75, 13.601533202022878 75, -105.83203125 75 M105.83203125 75 C43.12436798719159 75, -19.58329527561682 75, -105.83203125 75 M-105.83203125 75 C-105.83203125 26.523573119891473, -105.83203125 -21.952853760217053, -105.83203125 -75 M-105.83203125 75 C-105.83203125 33.16644418747854, -105.83203125 -8.66711162504292, -105.83203125 -75" stroke="#9370DB" stroke-width="1.3" fill="none" stroke-dasharray="0 0" style=""/></g><g class="annotation-group text" transform="translate(0, -51)"/><g class="label-group text" transform="translate(-50.2421875, -51)"><g class="label" style="font-weight: bolder" transform="translate(0,-12)"><foreignObject width="100.484375" height="24"><div xmlns="http://www.w3.org/1999/xhtml" style="display: table-cell; white-space: nowrap; line-height: 1.5; max-width: 137px; text-align: center;"><span class="nodeLabel markdown-node-label" style=""><p>MessageImpl</p></span></div></foreignObject></g></g><g class="members-group text" transform="translate(-93.83203125, -3)"/><g class="methods-group text" transform="translate(-93.83203125, 27)"><g class="label" style="" transform="translate(0,-12)"><foreignObject width="137.421875" height="24"><div xmlns="http://www.w3.org/1999/xhtml" style="display: table-cell; white-space: nowrap; line-height: 1.5; max-width: 176px; text-align: center;"><span class="nodeLabel markdown-node-label" style=""><p>+get_message_id()</p></span></div></foreignObject></g><g class="label" style="" transform="translate(0,12)"><foreignObject width="99.171875" height="24"><div xmlns="http://www.w3.org/1999/xhtml" style="display: table-cell; white-space: nowrap; line-height: 1.5; max-width: 143px; text-align: center;"><span class="nodeLabel markdown-node-label" style=""><p>+get_source()</p></span></div></foreignObject></g></g><g class="divider" style=""><path d="M-105.83203125 -27 C-26.04468220967719 -27, 53.74266683064562 -27, 105.83203125 -27 M-105.83203125 -27 C-24.932146264511232 -27, 55.967738720977536 -27, 105.83203125 -27" stroke="#9370DB" stroke-width="1.3" fill="none" stroke-dasharray="0 0" style=""/></g><g class="divider" style=""><path d="M-105.83203125 -3 C-54.08173606177419 -3, -2.331440873548374 -3, 105.83203125 -3 M-105.83203125 -3 C-39.391594808492385 -3, 27.04884163301523 -3, 105.83203125 -3" stroke="#9370DB" stroke-width="1.3" fill="none" stroke-dasharray="0 0" style=""/></g></g><g class="node default" id="classId-QueueImpl-5" transform="translate(465.82421875, 567)"><g class="basic label-container"><path d="M-103.15625 -87 L103.15625 -87 L103.15625 87 L-103.15625 87" stroke="none" stroke-width="0" fill="#ECECFF" style=""/><path d="M-103.15625 -87 C-28.134439973759328 -87, 46.887370052481344 -87, 103.15625 -87 M-103.15625 -87 C-36.54680175561961 -87, 30.062646488760777 -87, 103.15625 -87 M103.15625 -87 C103.15625 -31.572716872650254, 103.15625 23.854566254699492, 103.15625 87 M103.15625 -87 C103.15625 -45.50527609305298, 103.15625 -4.010552186105954, 103.15625 87 M103.15625 87 C43.70869897504573 87, -15.738852049908544 87, -103.15625 87 M103.15625 87 C26.11295191763213 87, -50.93034616473574 87, -103.15625 87 M-103.15625 87 C-103.15625 30.644335045061666, -103.15625 -25.711329909876667, -103.15625 -87 M-103.15625 87 C-103.15625 18.035475939761895, -103.15625 -50.92904812047621, -103.15625 -87" stroke="#9370DB" stroke-width="1.3" fill="none" stroke-dasharray="0 0" style=""/></g><g class="annotation-group text" transform="translate(0, -63)"/><g class="label-group text" transform="translate(-41.34375, -63)"><g class="label" style="font-weight: bolder" transform="translate(0,-12)"><foreignObject width="82.6875" height="24"><div xmlns="http://www.w3.org/1999/xhtml" style="display: table-cell; white-space: nowrap; line-height: 1.5; max-width: 123px; text-align: center;"><span class="nodeLabel markdown-node-label" style=""><p>QueueImpl</p></span></div></foreignObject></g></g><g class="members-group text" transform="translate(-91.15625, -15)"/><g class="methods-group text" transform="translate(-91.15625, 15)"><g class="label" style="" transform="translate(0,-12)"><foreignObject width="82.296875" height="24"><div xmlns="http://www.w3.org/1999/xhtml" style="display: table-cell; white-space: nowrap; line-height: 1.5; max-width: 127px; text-align: center;"><span class="nodeLabel markdown-node-label" style=""><p>+enqueue()</p></span></div></foreignObject></g><g class="label" style="" transform="translate(0,12)"><foreignObject width="82.296875" height="24"><div xmlns="http://www.w3.org/1999/xhtml" style="display: table-cell; white-space: nowrap; line-height: 1.5; max-width: 127px; text-align: center;"><span class="nodeLabel markdown-node-label" style=""><p>+dequeue()</p></span></div></foreignObject></g><g class="label" style="" transform="translate(0,36)"><foreignObject width="140.96875" height="24"><div xmlns="http://www.w3.org/1999/xhtml" style="display: table-cell; white-space: nowrap; line-height: 1.5; max-width: 178px; text-align: center;"><span class="nodeLabel markdown-node-label" style=""><p>+count_messages()</p></span></div></foreignObject></g></g><g class="divider" style=""><path d="M-103.15625 -39 C-35.87608920830799 -39, 31.404071583384024 -39, 103.15625 -39 M-103.15625 -39 C-22.78575549119651 -39, 57.58473901760698 -39, 103.15625 -39" stroke="#9370DB" stroke-width="1.3" fill="none" stroke-dasharray="0 0" style=""/></g><g class="divider" style=""><path d="M-103.15625 -15 C-58.70547434300727 -15, -14.254698686014535 -15, 103.15625 -15 M-103.15625 -15 C-42.718205156346755 -15, 17.71983968730649 -15, 103.15625 -15" stroke="#9370DB" stroke-width="1.3" fill="none" stroke-dasharray="0 0" style=""/></g></g><g class="node default" id="classId-SchedulerImpl-6" transform="translate(606.6484375, 331)"><g class="basic label-container"><path d="M-88.703125 -75 L88.703125 -75 L88.703125 75 L-88.703125 75" stroke="none" stroke-width="0" fill="#ECECFF" style=""/><path d="M-88.703125 -75 C-31.095613390159393 -75, 26.511898219681214 -75, 88.703125 -75 M-88.703125 -75 C-41.46274612273958 -75, 5.7776327545208375 -75, 88.703125 -75 M88.703125 -75 C88.703125 -22.40394608244094, 88.703125 30.192107835118122, 88.703125 75 M88.703125 -75 C88.703125 -21.740999715050386, 88.703125 31.51800056989923, 88.703125 75 M88.703125 75 C32.82282156129735 75, -23.057481877405294 75, -88.703125 75 M88.703125 75 C51.48461300070146 75, 14.266101001402916 75, -88.703125 75 M-88.703125 75 C-88.703125 33.18226269566157, -88.703125 -8.635474608676859, -88.703125 -75 M-88.703125 75 C-88.703125 43.690149470530095, -88.703125 12.38029894106019, -88.703125 -75" stroke="#9370DB" stroke-width="1.3" fill="none" stroke-dasharray="0 0" style=""/></g><g class="annotation-group text" transform="translate(0, -51)"/><g class="label-group text" transform="translate(-55.125, -51)"><g class="label" style="font-weight: bolder" transform="translate(0,-12)"><foreignObject width="110.25" height="24"><div xmlns="http://www.w3.org/1999/xhtml" style="display: table-cell; white-space: nowrap; line-height: 1.5; max-width: 145px; text-align: center;"><span class="nodeLabel markdown-node-label" style=""><p>SchedulerImpl</p></span></div></foreignObject></g></g><g class="members-group text" transform="translate(-76.703125, -3)"/><g class="methods-group text" transform="translate(-76.703125, 27)"><g class="label" style="" transform="translate(0,-12)"><foreignObject width="94.734375" height="24"><div xmlns="http://www.w3.org/1999/xhtml" style="display: table-cell; white-space: nowrap; line-height: 1.5; max-width: 140px; text-align: center;"><span class="nodeLabel markdown-node-label" style=""><p>+add_event()</p></span></div></foreignObject></g><g class="label" style="" transform="translate(0,12)"><foreignObject width="98.28125" height="24"><div xmlns="http://www.w3.org/1999/xhtml" style="display: table-cell; white-space: nowrap; line-height: 1.5; max-width: 143px; text-align: center;"><span class="nodeLabel markdown-node-label" style=""><p>+get_events()</p></span></div></foreignObject></g></g><g class="divider" style=""><path d="M-88.703125 -27 C-40.619357752414984 -27, 7.464409495170031 -27, 88.703125 -27 M-88.703125 -27 C-44.18998513581125 -27, 0.3231547283775029 -27, 88.703125 -27" stroke="#9370DB" stroke-width="1.3" fill="none" stroke-dasharray="0 0" style=""/></g><g class="divider" style=""><path d="M-88.703125 -3 C-49.06577781723757 -3, -9.428430634475134 -3, 88.703125 -3 M-88.703125 -3 C-17.882441941298367 -3, 52.938241117403265 -3, 88.703125 -3" stroke="#9370DB" stroke-width="1.3" fill="none" stroke-dasharray="0 0" style=""/></g></g><g class="node default" id="classId-ServerImpl-7" transform="translate(251.30859375, 567)"><g class="basic label-container"><path d="M-61.359375 -63 L61.359375 -63 L61.359375 63 L-61.359375 63" stroke="none" stroke-width="0" fill="#ECECFF" style=""/><path d="M-61.359375 -63 C-36.254978753039424 -63, -11.150582506078848 -63, 61.359375 -63 M-61.359375 -63 C-25.33380319188479 -63, 10.69176861623042 -63, 61.359375 -63 M61.359375 -63 C61.359375 -36.9710005948771, 61.359375 -10.942001189754194, 61.359375 63 M61.359375 -63 C61.359375 -35.279092913265075, 61.359375 -7.558185826530142, 61.359375 63 M61.359375 63 C25.68322050148565 63, -9.9929339970287 63, -61.359375 63 M61.359375 63 C28.431916150597488 63, -4.495542698805025 63, -61.359375 63 M-61.359375 63 C-61.359375 27.93044079260732, -61.359375 -7.139118414785358, -61.359375 -63 M-61.359375 63 C-61.359375 28.90680024121481, -61.359375 -5.186399517570379, -61.359375 -63" stroke="#9370DB" stroke-width="1.3" fill="none" stroke-dasharray="0 0" style=""/></g><g class="annotation-group text" transform="translate(0, -39)"/><g class="label-group text" transform="translate(-41.359375, -39)"><g class="label" style="font-weight: bolder" transform="translate(0,-12)"><foreignObject width="82.71875" height="24"><div xmlns="http://www.w3.org/1999/xhtml" style="display: table-cell; white-space: nowrap; line-height: 1.5; max-width: 123px; text-align: center;"><span class="nodeLabel markdown-node-label" style=""><p>ServerImpl</p></span></div></foreignObject></g></g><g class="members-group text" transform="translate(-49.359375, 9)"/><g class="methods-group text" transform="translate(-49.359375, 39)"><g class="label" style="" transform="translate(0,-12)"><foreignObject width="57.359375" height="24"><div xmlns="http://www.w3.org/1999/xhtml" style="display: table-cell; white-space: nowrap; line-height: 1.5; max-width: 109px; text-align: center;"><span class="nodeLabel markdown-node-label" style=""><p>+listen()</p></span></div></foreignObject></g></g><g class="divider" style=""><path d="M-61.359375 -15 C-21.4373559679566 -15, 18.484663064086803 -15, 61.359375 -15 M-61.359375 -15 C-24.6087089519795 -15, 12.141957096040997 -15, 61.359375 -15" stroke="#9370DB" stroke-width="1.3" fill="none" stroke-dasharray="0 0" style=""/></g><g class="divider" style=""><path d="M-61.359375 9 C-30.85266679649074 9, -0.3459585929814821 9, 61.359375 9 M-61.359375 9 C-23.651515377138807 9, 14.056344245722386 9, 61.359375 9" stroke="#9370DB" stroke-width="1.3" fill="none" stroke-dasharray="0 0" style=""/></g></g></g></g></g></svg>